<mxfile host="app.diagrams.net" modified="2023-01-26T21:35:16.856Z" agent="5.0 (Windows NT 10.0; Win64; x64) AppleWebKit/537.36 (KHTML, like Gecko) Chrome/109.0.0.0 Safari/537.36" etag="jqT3aGk5NMHkbfFLMoml" version="20.3.0" type="github">
  <diagram id="xfwIVmK_dkOMgxp77XbT" name="Страница 1">
    <mxGraphModel dx="768" dy="396" grid="1" gridSize="10" guides="1" tooltips="1" connect="1" arrows="1" fold="1" page="1" pageScale="1" pageWidth="827" pageHeight="1169" math="0" shadow="0">
      <root>
        <mxCell id="0" />
        <mxCell id="1" parent="0" />
        <mxCell id="egxK9OlNnggaQaYW6upp-4" value="" style="edgeStyle=orthogonalEdgeStyle;rounded=0;orthogonalLoop=1;jettySize=auto;html=1;" edge="1" parent="1" source="egxK9OlNnggaQaYW6upp-2" target="egxK9OlNnggaQaYW6upp-3">
          <mxGeometry relative="1" as="geometry" />
        </mxCell>
        <mxCell id="egxK9OlNnggaQaYW6upp-6" style="edgeStyle=orthogonalEdgeStyle;rounded=0;orthogonalLoop=1;jettySize=auto;html=1;entryX=0;entryY=0.5;entryDx=0;entryDy=0;" edge="1" parent="1" source="egxK9OlNnggaQaYW6upp-2" target="egxK9OlNnggaQaYW6upp-5">
          <mxGeometry relative="1" as="geometry" />
        </mxCell>
        <mxCell id="egxK9OlNnggaQaYW6upp-12" style="edgeStyle=orthogonalEdgeStyle;rounded=0;orthogonalLoop=1;jettySize=auto;html=1;entryX=0;entryY=0.5;entryDx=0;entryDy=0;" edge="1" parent="1" source="egxK9OlNnggaQaYW6upp-2" target="egxK9OlNnggaQaYW6upp-11">
          <mxGeometry relative="1" as="geometry" />
        </mxCell>
        <mxCell id="egxK9OlNnggaQaYW6upp-2" value="User" style="rounded=0;whiteSpace=wrap;html=1;" vertex="1" parent="1">
          <mxGeometry x="40" y="40" width="160" height="40" as="geometry" />
        </mxCell>
        <mxCell id="egxK9OlNnggaQaYW6upp-3" value="HeartRateZones" style="rounded=0;whiteSpace=wrap;html=1;" vertex="1" parent="1">
          <mxGeometry x="240" y="40" width="160" height="40" as="geometry" />
        </mxCell>
        <mxCell id="egxK9OlNnggaQaYW6upp-5" value="PowerZones" style="rounded=0;whiteSpace=wrap;html=1;" vertex="1" parent="1">
          <mxGeometry x="240" y="100" width="160" height="40" as="geometry" />
        </mxCell>
        <mxCell id="egxK9OlNnggaQaYW6upp-17" style="edgeStyle=orthogonalEdgeStyle;rounded=0;orthogonalLoop=1;jettySize=auto;html=1;" edge="1" parent="1" source="egxK9OlNnggaQaYW6upp-11" target="egxK9OlNnggaQaYW6upp-16">
          <mxGeometry relative="1" as="geometry" />
        </mxCell>
        <mxCell id="egxK9OlNnggaQaYW6upp-19" style="edgeStyle=orthogonalEdgeStyle;rounded=0;orthogonalLoop=1;jettySize=auto;html=1;entryX=0;entryY=0.5;entryDx=0;entryDy=0;" edge="1" parent="1" source="egxK9OlNnggaQaYW6upp-11" target="egxK9OlNnggaQaYW6upp-18">
          <mxGeometry relative="1" as="geometry" />
        </mxCell>
        <mxCell id="egxK9OlNnggaQaYW6upp-11" value="Activities" style="rounded=0;whiteSpace=wrap;html=1;" vertex="1" parent="1">
          <mxGeometry x="240" y="160" width="160" height="40" as="geometry" />
        </mxCell>
        <mxCell id="egxK9OlNnggaQaYW6upp-16" value="ActivityZone" style="rounded=0;whiteSpace=wrap;html=1;" vertex="1" parent="1">
          <mxGeometry x="440" y="160" width="160" height="40" as="geometry" />
        </mxCell>
        <mxCell id="egxK9OlNnggaQaYW6upp-18" value="Activity Laps" style="rounded=0;whiteSpace=wrap;html=1;" vertex="1" parent="1">
          <mxGeometry x="440" y="220" width="160" height="40" as="geometry" />
        </mxCell>
        <mxCell id="egxK9OlNnggaQaYW6upp-23" style="edgeStyle=orthogonalEdgeStyle;rounded=0;orthogonalLoop=1;jettySize=auto;html=1;" edge="1" parent="1" source="egxK9OlNnggaQaYW6upp-20" target="egxK9OlNnggaQaYW6upp-21">
          <mxGeometry relative="1" as="geometry" />
        </mxCell>
        <mxCell id="egxK9OlNnggaQaYW6upp-24" style="edgeStyle=orthogonalEdgeStyle;rounded=0;orthogonalLoop=1;jettySize=auto;html=1;entryX=0;entryY=0.5;entryDx=0;entryDy=0;" edge="1" parent="1" source="egxK9OlNnggaQaYW6upp-20" target="egxK9OlNnggaQaYW6upp-22">
          <mxGeometry relative="1" as="geometry" />
        </mxCell>
        <mxCell id="egxK9OlNnggaQaYW6upp-20" value="Routes" style="rounded=0;whiteSpace=wrap;html=1;" vertex="1" parent="1">
          <mxGeometry x="240" y="280" width="160" height="40" as="geometry" />
        </mxCell>
        <mxCell id="egxK9OlNnggaQaYW6upp-21" value="GPX" style="rounded=0;whiteSpace=wrap;html=1;" vertex="1" parent="1">
          <mxGeometry x="440" y="280" width="160" height="40" as="geometry" />
        </mxCell>
        <mxCell id="egxK9OlNnggaQaYW6upp-22" value="TCX" style="rounded=0;whiteSpace=wrap;html=1;" vertex="1" parent="1">
          <mxGeometry x="440" y="340" width="160" height="40" as="geometry" />
        </mxCell>
      </root>
    </mxGraphModel>
  </diagram>
</mxfile>
